<svg width="56" height="80" viewBox="0 0 56 80" fill="none" xmlns="http://www.w3.org/2000/svg">
<path d="M28 78.4886C27.8675 78.3365 27.7186 78.1648 27.5545 77.9742C26.7945 77.0921 25.7071 75.8067 24.4015 74.198C21.7893 70.9795 18.3082 66.4724 14.829 61.3157C11.3478 56.1562 7.88106 50.3645 5.2876 44.5755C2.68827 38.7734 1 33.0477 1 28C1 13.0723 13.0723 1 28 1C42.9277 1 55 13.0723 55 28C55 33.0477 53.3117 38.7734 50.7124 44.5755C48.1189 50.3645 44.6522 56.1562 41.171 61.3157C37.6918 66.4724 34.2107 70.9795 31.5985 74.198C30.2929 75.8067 29.2055 77.0921 28.4455 77.9742C28.2814 78.1648 28.1325 78.3365 28 78.4886ZM17 28C17 34.0723 21.9277 39 28 39C34.0723 39 39 34.0723 39 28C39 21.9277 34.0723 17 28 17C21.9277 17 17 21.9277 17 28Z" fill="#24CE81" stroke="black" stroke-width="2"/>
</svg>
